REM MD5 c93c347f01d6f26ff7e56d538e00cac1
FILE "Snowman, The (Japan).bin" BINARY
  TRACK 01 MODE2/2352
    INDEX 01 00:00:00
  TRACK 02 AUDIO
    INDEX 00 53:37:37
    INDEX 01 53:39:37
  TRACK 03 AUDIO
    INDEX 00 56:08:58
    INDEX 01 56:10:58
REM LEADOUT 57:40:74
